<svg width="179" height="40" viewBox="0 0 179 40" fill="none" xmlns="http://www.w3.org/2000/svg">
<path d="M30.2226 0.537109V6.1328H14.666V17.2949H17.3906V14.6582H21.5801V25.1465H17.3906V22.627H14.666V34.4043H20.4082V40H0.193359V34.4043H5.93555V6.1328H0.193359V0.537109H30.2226ZM52.4005 0.537109V6.1328H24.539V0.537109H52.4005ZM49.0605 27.4609H33.0351V34.3164C33.0351 35.3906 33.582 35.9277 34.6758 35.9277H39.041C40.0566 35.9277 40.5644 35.3711 40.5644 34.2578V30.2734H49.0605V33.9356C49.0605 35.8106 48.3865 37.2949 47.039 38.3886C45.6914 39.4629 43.8847 40 41.6191 40H31.6289C29.3047 40 27.5273 39.3848 26.2969 38.1543C25.125 37.0215 24.539 35.459 24.539 33.4668V16.416C24.539 14.3652 25.3008 12.7929 26.8242 11.6992C28.1328 10.7617 29.7929 10.2929 31.8047 10.2929H41.9707C46.6972 10.2929 49.0605 12.3926 49.0605 16.5918V27.4609ZM40.5644 24.0918V16.123C40.5644 14.9707 40.0957 14.3945 39.1582 14.3945L34.5586 14.4238C33.5429 14.4238 33.0351 15.0097 33.0351 16.1816V24.0918H40.5644ZM80.115 0.537109V6.1328H51.961V0.537109H80.115ZM76.834 26.4649H68.25V16.8261C68.25 16.4355 68.2205 16.1914 68.162 16.0937C68.1035 15.9765 67.9765 15.9179 67.781 15.9179C67.2735 15.9179 66.3945 16.5722 65.1445 17.8808C64.285 18.7597 63.5625 19.6875 62.9765 20.6641V34.4043H65.701V40H51.961V34.4043H54.7735V15.2734H51.961V10.2929H62.9765V14.5117C63.7775 13.6133 64.9005 12.7441 66.3455 11.9043C68.201 10.8105 69.9005 10.2636 71.4435 10.2636C73.1035 10.2636 74.412 10.7129 75.369 11.6113C76.3455 12.4902 76.834 13.6719 76.834 15.1562V26.4649ZM107.771 0.537109V6.1328H79.617V0.537109H107.771ZM104.49 26.4649H95.906V16.8261C95.906 16.4355 95.877 16.1914 95.8185 16.0937C95.76 15.9765 95.633 15.9179 95.4375 15.9179C94.9295 15.9179 94.051 16.5722 92.801 17.8808C91.9415 18.7597 91.219 19.6875 90.633 20.6641V34.4043H93.3575V40H79.617V34.4043H82.4295V15.2734H79.617V10.2929H90.633V14.5117C91.4335 13.6133 92.5565 12.7441 94.002 11.9043C95.8575 10.8105 97.5565 10.2636 99.0995 10.2636C100.76 10.2636 102.068 10.7129 103.025 11.6113C104.002 12.4902 104.49 13.6719 104.49 15.1562V26.4649ZM135.34 0.537109V6.1328H107.097V0.537109H135.34ZM132.117 40H113.543C111.492 40 109.881 39.375 108.709 38.125C107.635 36.9922 107.097 35.5566 107.097 33.8184V27.373C107.097 23.9551 109.187 22.2461 113.367 22.2461L121.453 22.2754V15.8594C121.453 14.9023 121.043 14.4238 120.222 14.4238H117C116.062 14.4238 115.594 14.8633 115.594 15.7422V19.873H107.097V16.1523C107.097 12.2461 109.5 10.2929 114.304 10.2929H123.533C127.791 10.2929 129.92 12.3047 129.92 16.3281V34.4043H132.117V40ZM121.453 35.9277V25.5274H117.234C116.14 25.5274 115.594 26.0156 115.594 26.9922V34.1699C115.594 35.3418 116.17 35.9277 117.322 35.9277H121.453ZM163.084 0.537109V6.1328H134.929V0.537109H163.084ZM159.802 26.4649H151.219V16.8261C151.219 16.4355 151.189 16.1914 151.131 16.0937C151.072 15.9765 150.945 15.9179 150.75 15.9179C150.242 15.9179 149.363 16.5722 148.113 17.8808C147.254 18.7597 146.531 19.6875 145.945 20.6641V34.4043H148.67V40H134.929V34.4043H137.742V15.2734H134.929V10.2929H145.945V14.5117C146.746 13.6133 147.869 12.7441 149.314 11.9043C151.17 10.8105 152.869 10.2636 154.412 10.2636C156.072 10.2636 157.381 10.7129 158.338 11.6113C159.314 12.4902 159.802 13.6719 159.802 15.1562V26.4649ZM178.728 3.46679C178.728 4.26758 178.045 4.95117 176.677 5.5176C175.31 6.084 173.592 6.3672 171.521 6.3672C169.51 6.3672 167.82 6.084 166.453 5.5176C165.105 4.95117 164.431 4.26758 164.431 3.46679C164.431 2.64648 165.105 1.95312 166.453 1.38672C167.82 0.820314 169.51 0.537109 171.521 0.537109C173.552 0.537109 175.261 0.820314 176.648 1.38672C178.035 1.95312 178.728 2.64648 178.728 3.46679ZM178.552 40H164.549V34.4043H167.361V15.2734H164.549V10.2929H178.523V15.2734H175.799V34.4043H178.523L178.552 40Z" fill="white"/>
</svg>
